<?xml version="1.0" standalone="no"?>
<!DOCTYPE svg PUBLIC "-//W3C//DTD SVG 20010904//EN"
 "http://www.w3.org/TR/2001/REC-SVG-20010904/DTD/svg10.dtd">
<svg version="1.0" xmlns="http://www.w3.org/2000/svg"
 width="700.000000pt" height="700.000000pt" viewBox="0 0 700.000000 700.000000"
 preserveAspectRatio="xMidYMid meet">
<metadata>
Created by potrace 1.11, written by Peter Selinger 2001-2013
</metadata>
<g transform="translate(0.000000,700.000000) scale(0.100000,-0.100000)"
fill="#000000" stroke="none">
<path d="M3360 6994 c-387 -25 -642 -72 -950 -174 -539 -178 -984 -453 -1385
-854 -498 -499 -826 -1119 -959 -1811 -81 -423 -80 -896 5 -1330 236 -1220
1127 -2237 2307 -2635 571 -193 1115 -233 1752 -129 631 103 1267 422 1755
881 598 562 977 1287 1075 2055 128 1007 -124 1927 -739 2695 -525 657 -1286
1105 -2126 1254 -186 33 -576 58 -735 48z m830 -2214 l0 -880 -647 0 c-357 0
-699 -3 -760 -7 l-113 -6 0 -184 0 -183 -270 0 -269 0 -351 -346 -350 -347 0
1417 0 1416 1380 0 1380 0 0 -880z m-330 -1444 l0 -203 -61 -6 c-116 -10 -210
-78 -243 -174 l-15 -43 160 0 159 0 0 -365 0 -365 -360 0 -360 0 0 401 c0 452
2 466 73 604 58 113 163 216 277 273 91 46 225 80 318 81 l52 1 0 -204z m1090
-1 l0 -205 -38 0 c-52 0 -126 -23 -173 -54 -41 -28 -99 -116 -99 -153 0 -23 1
-23 155 -23 l155 0 0 -360 0 -360 -360 0 -360 0 0 393 c0 434 2 452 64 582 97
204 263 327 500 370 39 7 90 14 114 14 l42 1 0 -205z"/>
<path d="M2990 5020 l0 -370 155 0 c98 0 155 -4 155 -10 0 -6 -10 -31 -21 -55
-41 -86 -140 -145 -246 -145 l-43 0 0 -211 0 -212 80 6 c184 14 333 80 450
197 84 84 129 154 168 262 l27 73 0 415 0 415 -362 3 -363 2 0 -370z"/>
<path d="M1900 5015 l0 -365 156 0 155 0 -7 -22 c-35 -114 -115 -174 -256
-193 l-48 -6 0 -206 0 -206 80 7 c302 27 530 201 615 469 25 78 25 80 25 483
l0 404 -360 0 -360 0 0 -365z"/>
</g>
</svg>
